<svg xmlns="http://www.w3.org/2000/svg" xmlns:xlink="http://www.w3.org/1999/xlink" width="321.906" height="148.777" viewBox="0 0 321.906 148.777">
  <defs>
    <pattern id="pattern" preserveAspectRatio="none" width="100%" height="100%" viewBox="0 0 0 0">
      <image/>
    </pattern>
  </defs>
  <g id="Logo" transform="translate(-128 -140)">
    <g id="Place_Your_Logo_Here_Double_Click_to_Edit_" data-name="Place Your Logo Here (Double Click to Edit)" transform="translate(128 140)">
      <g id="Logo-2" data-name="Logo">
        <text id="MAKE-UP" transform="translate(198.394 101.322)" fill="#fff" font-size="23" font-family="Poppins-Regular, Poppins" letter-spacing="0.34em"><tspan x="-74.658" y="0">MAKE-UP</tspan></text>
        <text id="Beauty" transform="translate(207.906 74.072)" fill="#fff" font-size="69" font-family="SegoeUI, Segoe UI" letter-spacing="0.06em"><tspan x="-113.631" y="0">Beauty</tspan></text>
        <g id="Vector_Smart_Object_Double_Click_to_Edit_" data-name="Vector Smart Object  (Double Click to Edit)" transform="translate(6.099 1.326)">
          <g id="Group_1" data-name="Group 1">
            <path id="Path_11" data-name="Path 11" d="M43.223,0c-.718.948-1.405,1.926-2.158,2.838-7.451,9.02-11.008,19.83-12.417,31.808-2.209,18.773,3.218,34.916,13.272,49.6,4.03,5.885,8.5,11.41,11.231,18.3,2.276,5.745,4.275,11.508,3.91,17.932a19.2,19.2,0,0,1-4.081,10.993c-.279-.863-.516-1.5-.693-2.159-1.148-4.257-2.573-8.382-5.17-11.842-4.964-6.613-11.394-9.187-19.043-8.246-2.957.364-5.906.913-8.872,1.069a25.75,25.75,0,0,1-6.514-.5c-2.783-.575-4.8-2.533-6.278-5.212a7.234,7.234,0,0,1-.47-6.243c.333-.923.74-1.814,1.074-2.736.778-2.146.6-2.694-1.155-3.849a4.154,4.154,0,0,1-.216-7.1c.269-.2.545-.386.9-.637-.739-.572-1.4-1.008-1.985-1.552a2.847,2.847,0,0,1,0-4.573c3.34-3.151,3.3-5.731-.128-8.853-1.041-.947-2.15-1.812-3.131-2.829-1.719-1.783-1.747-3.349.009-5.056,1.515-1.473,3.245-2.673,4.778-4.125A61.2,61.2,0,0,0,12.9,50.151c2.692-3.51,2.295-5.395-.99-8.226A14.683,14.683,0,0,1,9.6,39.676l1.717.857L9.8,38.011l.131-.121,4.862,4.445c2.232-11.76,5.783-22.392,13.356-30.845A53.671,53.671,0,0,1,43.223,0Z" fill="#fff"/>
            <path id="Path_12" data-name="Path 12" d="M43.187,6.663c-1.232,2.131-2.527,4.22-3.688,6.4C29.132,32.5,30.537,52.4,43.974,70.3c5.23,6.966,11.167,13.282,16.805,19.87,5.3,6.189,10.618,12.364,14.261,19.984,4.376,9.154,4.8,18.515.817,27.971a16.788,16.788,0,0,1-5.636,7.271c-4.026,2.9-8.49,2.764-12.193-.605a51.993,51.993,0,0,1-4.25-4.93l.362-.436c.365.359.734.714,1.095,1.079,4.733,4.779,10.475,3.5,13.256-2.917,1.912-4.411,1.9-9.007,1.223-13.69a58.481,58.481,0,0,0-12.381-29.08c-5.866-7.265-11.822-14.539-16.9-22.471-10.233-16-12.58-33.488-5.974-52C36.355,15.043,39.052,10.249,43.187,6.663Z" fill="#fff"/>
            <path id="Path_13" data-name="Path 13" d="M63.32,56.654a3.692,3.692,0,0,1-2.945,4.973,6.084,6.084,0,0,1-6.784-2.988,8.961,8.961,0,0,1-.353-8.848,8.591,8.591,0,0,1,10.371-4.725c11.992,4.1,12.787,19.281,7.43,26.363-3.668,4.849-8.718,5.556-14.011,4.228-5.037-1.263-8.8-4.772-12.044-9.048A47.522,47.522,0,0,1,43.61,11c-1.252,4.1-2.791,8.481-3.916,12.986-1.913,7.657-2.559,15.5-.488,23.2C41.795,56.822,46.7,64.663,55,69.4c9.119,5.2,16.429-4.22,16.24-11.928-.153-6.246-7.789-12.518-12.052-10.9a8.413,8.413,0,0,0-4.764,10.695,4.621,4.621,0,0,0,4.344,3.252C61.1,60.592,62.659,59.318,63.32,56.654Z" fill="#fff"/>
            <path id="Path_14" data-name="Path 14" d="M60.368,83.654c4,1.407,8.058,2.631,11.979,4.265a31.828,31.828,0,0,1,14.738,12.83,18.481,18.481,0,0,1,2.262,5.139c.653,2.532-.643,4.226-3.028,4.418a6.487,6.487,0,0,1-5.393-2.147,73.025,73.025,0,0,1-5.47-6.315C70.7,95.486,66.387,88.69,60.067,83.972Z" fill="#fff"/>
            <path id="Path_15" data-name="Path 15" d="M43.689,18.242c.172,2.821.163,5.976.615,9.047a10.606,10.606,0,0,0,3.5,6.188c2.722,2.552,5.447,5.29,5.276,9.677a18.51,18.51,0,0,1-1.436,5.784c-.519,1.342-1.679,1.5-3.021.958-4.81-1.937-7.411-5.768-8.258-11.245C39.218,31.214,40.95,24.405,43.689,18.242Z" fill="#fff"/>
            <path id="Path_16" data-name="Path 16" d="M47.787,15.117c-1.719,4.193.552,7.037,2.517,9.976,1.809,2.707,1.994,4.318.727,6.64-.906,1.66-1.638,1.8-2.92.492-3.023-3.082-3.8-6.949-2.887-11.218A54.718,54.718,0,0,1,47.2,15.03Z" fill="#fff"/>
            <path id="Path_17" data-name="Path 17" d="M69.689,82.363a20.125,20.125,0,0,1,8.708.79,2.306,2.306,0,0,1,1.287.795,4.1,4.1,0,0,1,.569,2.321c-.059.354-1.277.865-1.767.671-3.026-1.193-5.993-2.567-8.98-3.881Z" fill="#fff"/>
          </g>
        </g>
      </g>
      <rect id="Place_Your_Logo_Here" data-name="Place Your Logo Here" fill="url(#pattern)"/>
    </g>
  </g>
</svg>
